# xmcd
#
# Track frame offsets:
#	150
#	12931
#	24737
#	38544
#	51704
#	63447
#	74768
#	87794
#	98750
#	111146
#	123813
#	137448
#	148675
#	163621
#	175182
#
# Disc length: 2460 seconds
#
# Revision: 1
# Processed by: cddbd v1.5.2PL0 Copyright (c) Steve Scherf et al.
# Submitted via: audiograbber 1.83.01
#
DISCID=cc099a0f
DTITLE=Hank Snow - Country All Stars CD 5
DYEAR=2008
DGENRE=Country
TTITLE0=I Wonder Where You're At Tonight
TTITLE1=Vaya Con Dios (May God Be With You)
TTITLE2=Love Entered The Iron Door
TTITLE3=I'm Movin' On
TTITLE4=The Law Of Love
TTITLE5=A Fool Such As I
TTITLE6=You Pass Me By
TTITLE7=These Things Shall Pass
TTITLE8=Ben Dewberry's Final Run
TTITLE9=The Golden Rocket
TTITLE10=The Engineer's Child
TTITLE11=Mississippi River Blues
TTITLE12=Address Unknown
TTITLE13=One More Ride
TTITLE14=That Crazy Mambo Thing
EXTD=
EXTT0=
EXTT1=
EXTT2=
EXTT3=
EXTT4=
EXTT5=
EXTT6=
EXTT7=
EXTT8=
EXTT9=
EXTT10=
EXTT11=
EXTT12=
EXTT13=
EXTT14=
PLAYORDER=
